<svg xmlns="http://www.w3.org/2000/svg" viewBox="0 0 480 480.02"><defs><style>.cls-1{fill:#5998ff;}.cls-2{fill:#dee2e6;}</style></defs><title>cloud</title><g id="Layer_2" data-name="Layer 2"><g id="Capa_1" data-name="Capa 1"><rect class="cls-1" x="136" y="192.02" width="16" height="16"/><rect class="cls-1" x="168" y="192.02" width="16" height="16"/><path class="cls-2" d="M326.86,336H368a8,8,0,0,0,8-8V304A104,104,0,1,0,362.16,97a135.94,135.94,0,0,0-266,31.45Q92.12,128,88,128a88,88,0,0,0,0,176h16v24a8,8,0,0,0,8,8h41.14A32,32,0,0,0,176,358.88V416H96v16h80v32H96v16h88a8,8,0,0,0,8-8V358.88A32,32,0,0,0,214.86,336h50.28A32,32,0,0,0,288,358.88V472a8,8,0,0,0,8,8h88V464H304V432h80V416H304V358.88A32,32,0,0,0,326.86,336ZM104,264v24H88a72,72,0,0,1,0-144,72.78,72.78,0,0,1,14.5,1.46,8,8,0,0,0,9.58-8c0-.16-.07-1.34-.08-1.5a119.94,119.94,0,0,1,236.55-28.11,8,8,0,0,0,9.41,6A88,88,0,1,1,376,288V264a8,8,0,0,0-8-8H352V240h16a8,8,0,0,0,8-8V168a8,8,0,0,0-8-8H112a8,8,0,0,0-8,8v64a8,8,0,0,0,8,8h16v16H112A8,8,0,0,0,104,264Zm16-40V176H360v48Zm216,16v16H144V240ZM184,344a16,16,0,1,1,16-16A16,16,0,0,1,184,344Zm81.14-24H214.86a31.84,31.84,0,0,0-61.72,0H120V272H360v48H326.86a31.84,31.84,0,0,0-61.72,0ZM296,344a16,16,0,1,1,16-16A16,16,0,0,1,296,344Z"/><rect class="cls-1" x="64" y="464.02" width="16" height="16"/><rect class="cls-1" x="32" y="464.02" width="16" height="16"/><rect class="cls-1" y="464.02" width="16" height="16"/><rect class="cls-1" x="64" y="416.02" width="16" height="16"/><rect class="cls-1" x="32" y="416.02" width="16" height="16"/><rect class="cls-1" y="416.02" width="16" height="16"/><rect class="cls-1" x="400" y="464.02" width="16" height="16"/><rect class="cls-1" x="432" y="464.02" width="16" height="16"/><rect class="cls-1" x="464" y="464.02" width="16" height="16"/><rect class="cls-1" x="400" y="416.02" width="16" height="16"/><rect class="cls-1" x="432" y="416.02" width="16" height="16"/><rect class="cls-1" x="464" y="416.02" width="16" height="16"/></g></g></svg>