<svg xmlns="http://www.w3.org/2000/svg" viewBox="0 0 400 464"><defs><style>.cls-1{fill:#5998ff;}.cls-2{fill:#dee2e6;}</style></defs><title>encryption</title><g id="Layer_2" data-name="Layer 2"><g id="Capa_1" data-name="Capa 1"><polygon class="cls-1" points="221.66 317.66 210.34 306.34 200 316.69 189.66 306.34 178.34 317.66 188.69 328 178.34 338.34 189.66 349.66 200 339.31 210.34 349.66 221.66 338.34 211.31 328 221.66 317.66"/><polygon class="cls-1" points="293.66 317.66 282.34 306.34 272 316.69 261.66 306.34 250.34 317.66 260.69 328 250.34 338.34 261.66 349.66 272 339.31 282.34 349.66 293.66 338.34 283.31 328 293.66 317.66"/><polygon class="cls-1" points="365.66 317.66 354.34 306.34 344 316.69 333.66 306.34 322.34 317.66 332.69 328 322.34 338.34 333.66 349.66 344 339.31 354.34 349.66 365.66 338.34 355.31 328 365.66 317.66"/><polygon class="cls-1" points="77.66 317.66 66.34 306.34 56 316.69 45.66 306.34 34.34 317.66 44.69 328 34.34 338.34 45.66 349.66 56 339.31 66.34 349.66 77.66 338.34 67.31 328 77.66 317.66"/><polygon class="cls-1" points="149.66 317.66 138.34 306.34 128 316.69 117.66 306.34 106.34 317.66 116.69 328 106.34 338.34 117.66 349.66 128 339.31 138.34 349.66 149.66 338.34 139.31 328 149.66 317.66"/><path class="cls-2" d="M392,272H352V200a8,8,0,0,0-8-8H136V120a64,64,0,0,1,128,0v20a28,28,0,0,0,56,0V120a120,120,0,0,0-240,0v72H56a8,8,0,0,0-8,8v72H8a8,8,0,0,0-8,8v96a8,8,0,0,0,8,8H48v72a8,8,0,0,0,8,8H344a8,8,0,0,0,8-8V384h40a8,8,0,0,0,8-8V280A8,8,0,0,0,392,272ZM96,120a104,104,0,0,1,208,0v20a12,12,0,0,1-24,0V120a80,80,0,0,0-160,0v72H96ZM64,208H336v64H296V256a8,8,0,0,0-5.9-7.72l-88-24a7.88,7.88,0,0,0-4.2,0l-88,24A8,8,0,0,0,104,256v16H64Zm216,54.11V272H120v-9.89l80-21.82ZM336,448H64V384h72.8a146.49,146.49,0,0,0,35.42,31.8l23.49,14.95a8,8,0,0,0,8.59,0l23.5-14.95A146.58,146.58,0,0,0,263.2,384H336ZM158.25,384h83.5a130.94,130.94,0,0,1-22.55,18.3L200,414.51,180.8,402.3A130.94,130.94,0,0,1,158.25,384ZM384,368H16V288H384Z"/><rect class="cls-1" x="80" y="416" width="16" height="16"/><rect class="cls-1" x="304" y="416" width="16" height="16"/><rect class="cls-1" x="80" y="224" width="16" height="16"/><rect class="cls-1" x="304" y="224" width="16" height="16"/></g></g></svg>