<svg xmlns="http://www.w3.org/2000/svg" viewBox="0 0 380.82 139.62"><defs><style>.cls-1{fill:#fff;stroke:#fff;stroke-miterlimit:10;stroke-width:5px;}</style></defs><title>logo_text</title><g id="Layer_2" data-name="Layer 2"><g id="Objects"><path class="cls-1" d="M4.3,103.4A6.07,6.07,0,0,1,2.5,99V14A6.27,6.27,0,0,1,4.3,9.51,5.92,5.92,0,0,1,8.74,7.64h54A5.72,5.72,0,0,1,67,9.37,5.76,5.76,0,0,1,68.7,13.6,5.53,5.53,0,0,1,67,17.77a5.86,5.86,0,0,1-4.23,1.66H15.13V50.1H57.87a5.92,5.92,0,0,1,6,6,5.54,5.54,0,0,1-1.73,4.16,5.9,5.9,0,0,1-4.24,1.67H15.13V99a6,6,0,0,1-1.87,4.45,6.3,6.3,0,0,1-4.52,1.8A6,6,0,0,1,4.3,103.4Z"/><path class="cls-1" d="M85.21,103.4A6.07,6.07,0,0,1,83.41,99V8.88a6.29,6.29,0,0,1,1.8-4.51A5.92,5.92,0,0,1,89.65,2.5,6.18,6.18,0,0,1,96,8.88V99a6,6,0,0,1-1.88,4.45,6.26,6.26,0,0,1-4.51,1.8A6,6,0,0,1,85.21,103.4Z"/><path class="cls-1" d="M129.55,135.32a6,6,0,0,1-1.73-4.31,6.23,6.23,0,0,1,.42-2.22l9-23.17L111.17,42.05a7.07,7.07,0,0,1-.56-2.63,6.27,6.27,0,0,1,1.8-4.51A6,6,0,0,1,116.86,33a6.09,6.09,0,0,1,3.54,1.11,6.3,6.3,0,0,1,2.28,2.78l21.38,53L165.85,37.2q1.8-4.17,5.82-4.17a6,6,0,0,1,4.45,1.88,6.27,6.27,0,0,1,1.8,4.51,6.63,6.63,0,0,1-.42,2.36l-37.88,91c-1.3,2.86-3.24,4.3-5.83,4.3A5.67,5.67,0,0,1,129.55,135.32Z"/><path class="cls-1" d="M205.12,95.35V99a5.94,5.94,0,0,1-1.87,4.45,6.29,6.29,0,0,1-4.51,1.8A6.16,6.16,0,0,1,192.49,99V8.88a6.26,6.26,0,0,1,1.81-4.51,5.91,5.91,0,0,1,4.44-1.87,6.16,6.16,0,0,1,6.38,6.38v34q10.13-10.55,23.73-10.55a32.6,32.6,0,0,1,16.31,4.37,33.14,33.14,0,0,1,12.49,12.77,39,39,0,0,1,4.79,19.64,39,39,0,0,1-4.79,19.63,33.14,33.14,0,0,1-12.49,12.77,32.49,32.49,0,0,1-16.31,4.37Q215.25,105.89,205.12,95.35Zm38.44-7.78q6.25-6.51,6.25-18.45t-6.25-18.46q-6.24-6.52-16.51-6.52A26.31,26.31,0,0,0,215,47a34.54,34.54,0,0,0-9.92,7.56V83.69A34.19,34.19,0,0,0,215,91.25a26.2,26.2,0,0,0,12,2.85Q237.31,94.1,243.56,87.57Z"/><path class="cls-1" d="M292.55,101.31a31.15,31.15,0,0,1-12.42-13,41.09,41.09,0,0,1-4.37-19.22,41.1,41.1,0,0,1,4.37-19.23,31.2,31.2,0,0,1,12.42-13,40.34,40.34,0,0,1,37.34,0,31.61,31.61,0,0,1,12.49,13,40.53,40.53,0,0,1,4.44,19.23,40.52,40.52,0,0,1-4.44,19.22,31.55,31.55,0,0,1-12.49,13,40.34,40.34,0,0,1-37.34,0Zm29.63-9.57a21.2,21.2,0,0,0,8.61-8.33q3.39-5.68,3.4-14.43t-3.4-14.3a20.74,20.74,0,0,0-8.61-8.25,24.21,24.21,0,0,0-10.89-2.57,24.48,24.48,0,0,0-11,2.57,20.3,20.3,0,0,0-8.54,8.25q-3.33,5.7-3.33,14.3t3.33,14.43a20.75,20.75,0,0,0,8.54,8.33,24,24,0,0,0,11,2.64A23.77,23.77,0,0,0,322.18,91.74Z"/><path class="cls-1" d="M365.41,17.21a6.84,6.84,0,0,1-2.08-5v-.55a6.86,6.86,0,0,1,2.08-5,6.86,6.86,0,0,1,5-2.08h.83a6.84,6.84,0,0,1,5,2.08,6.82,6.82,0,0,1,2.08,5v.55a6.8,6.8,0,0,1-2.08,5,6.8,6.8,0,0,1-5,2.08h-.83A6.82,6.82,0,0,1,365.41,17.21Zm.84,86.19A6,6,0,0,1,364.44,99V39.42a6.24,6.24,0,0,1,1.81-4.51A5.92,5.92,0,0,1,370.69,33a6.18,6.18,0,0,1,6.38,6.39V99a5.94,5.94,0,0,1-1.87,4.45,6.29,6.29,0,0,1-4.51,1.8A6,6,0,0,1,366.25,103.4Z"/></g></g></svg>