<svg xmlns="http://www.w3.org/2000/svg" viewBox="0 0 624.81 213.29"><defs><style>.cls-1,.cls-2{fill:#757575;}.cls-2{stroke:#333;stroke-miterlimit:10;stroke-width:5px;}</style></defs><title>logo_dark</title><g id="Layer_2" data-name="Layer 2"><g id="Objects"><path class="cls-1" d="M229.28.85a3.46,3.46,0,0,0-3.72-.53L2,104.2a3.44,3.44,0,0,0-.06,6.21L65.2,141.46a3.45,3.45,0,0,0,3.58-.33l61.51-46L82,144.83a3.44,3.44,0,0,0-1,2.66l4.81,62.62a3.46,3.46,0,0,0,2.36,3,3.69,3.69,0,0,0,1.08.17,3.46,3.46,0,0,0,2.61-1.19l33.58-38.92L167,193a3.44,3.44,0,0,0,4.77-2.08L230.3,4.48A3.45,3.45,0,0,0,229.28.85Z"/><path class="cls-2" d="M248.29,168a6,6,0,0,1-1.8-4.44V78.61a6.26,6.26,0,0,1,1.8-4.51,5.93,5.93,0,0,1,4.44-1.88h54a5.94,5.94,0,0,1,6,6A5.51,5.51,0,0,1,311,82.35,5.86,5.86,0,0,1,306.72,84h-47.6v30.67h42.74a5.91,5.91,0,0,1,6,6,5.55,5.55,0,0,1-1.73,4.16,5.9,5.9,0,0,1-4.24,1.67H259.12v37.05a5.94,5.94,0,0,1-1.87,4.44,6.27,6.27,0,0,1-4.52,1.81A6,6,0,0,1,248.29,168Z"/><path class="cls-2" d="M329.2,168a6,6,0,0,1-1.8-4.44V73.47A6.29,6.29,0,0,1,329.2,69a5.92,5.92,0,0,1,4.44-1.87A6.18,6.18,0,0,1,340,73.47v90.07a5.92,5.92,0,0,1-1.88,4.44,6.23,6.23,0,0,1-4.51,1.81A6,6,0,0,1,329.2,168Z"/><path class="cls-2" d="M373.54,199.9a6,6,0,0,1-1.73-4.3,6.45,6.45,0,0,1,.41-2.22l9-23.18-26.09-63.56a6.89,6.89,0,0,1-.56-2.64,6.29,6.29,0,0,1,1.8-4.51,5.94,5.94,0,0,1,4.45-1.87,6,6,0,0,1,3.53,1.11,6.25,6.25,0,0,1,2.29,2.78l21.38,53,21.79-52.74q1.8-4.16,5.82-4.16a5.94,5.94,0,0,1,4.45,1.87,6.29,6.29,0,0,1,1.8,4.51,6.59,6.59,0,0,1-.42,2.36l-37.88,91.05c-1.3,2.86-3.24,4.3-5.83,4.3A5.64,5.64,0,0,1,373.54,199.9Z"/><path class="cls-2" d="M449.11,159.93v3.61a5.91,5.91,0,0,1-1.87,4.44,6.26,6.26,0,0,1-4.51,1.81,6.16,6.16,0,0,1-6.25-6.25V73.47a6.29,6.29,0,0,1,1.8-4.51,5.94,5.94,0,0,1,4.45-1.87,6.16,6.16,0,0,1,6.38,6.38v34q10.13-10.55,23.73-10.54a32.49,32.49,0,0,1,16.31,4.37,33.14,33.14,0,0,1,12.49,12.77,39,39,0,0,1,4.79,19.63,39,39,0,0,1-4.79,19.64,33.14,33.14,0,0,1-12.49,12.77,32.6,32.6,0,0,1-16.31,4.37Q459.24,170.48,449.11,159.93Zm38.44-7.77q6.26-6.53,6.25-18.46t-6.25-18.45q-6.24-6.52-16.51-6.53a26.2,26.2,0,0,0-12,2.85,34.36,34.36,0,0,0-9.92,7.56v29.15a34.54,34.54,0,0,0,9.92,7.56,26.2,26.2,0,0,0,12,2.85Q481.3,158.69,487.55,152.16Z"/><path class="cls-2" d="M536.54,165.9a31.2,31.2,0,0,1-12.42-13,41.1,41.1,0,0,1-4.37-19.23,41.09,41.09,0,0,1,4.37-19.22,31.2,31.2,0,0,1,12.42-13,40.34,40.34,0,0,1,37.34,0,31.68,31.68,0,0,1,12.49,13,40.52,40.52,0,0,1,4.44,19.22,40.53,40.53,0,0,1-4.44,19.23,31.68,31.68,0,0,1-12.49,13,40.34,40.34,0,0,1-37.34,0Zm29.63-9.57a21.27,21.27,0,0,0,8.61-8.33q3.39-5.69,3.4-14.44,0-8.59-3.4-14.29a20.83,20.83,0,0,0-8.61-8.26,24.33,24.33,0,0,0-10.89-2.56,24.6,24.6,0,0,0-11,2.56,20.38,20.38,0,0,0-8.54,8.26q-3.33,5.7-3.33,14.29,0,8.74,3.33,14.44a20.81,20.81,0,0,0,8.54,8.33,24.15,24.15,0,0,0,11,2.63A23.89,23.89,0,0,0,566.17,156.33Z"/><path class="cls-2" d="M609.4,81.8a6.84,6.84,0,0,1-2.08-5v-.55a7.1,7.1,0,0,1,7.08-7.08h.83a7.1,7.1,0,0,1,7.08,7.08v.55a7.1,7.1,0,0,1-7.08,7.08h-.83A6.82,6.82,0,0,1,609.4,81.8Zm.84,86.18a6,6,0,0,1-1.81-4.44V104a6.26,6.26,0,0,1,1.81-4.51,5.91,5.91,0,0,1,4.44-1.87,6.16,6.16,0,0,1,6.38,6.38v59.54a5.91,5.91,0,0,1-1.87,4.44,6.26,6.26,0,0,1-4.51,1.81A6,6,0,0,1,610.24,168Z"/></g></g></svg>