<svg xmlns="http://www.w3.org/2000/svg" viewBox="0 0 480 480.06"><defs><style>.cls-1{fill:#5998ff;}.cls-2{fill:#dee2e6;}</style></defs><title>mfa</title><g id="Layer_2" data-name="Layer 2"><g id="Capa_1" data-name="Capa 1"><path class="cls-1" d="M288.14,304.06A16.17,16.17,0,0,0,272,320.21v23.85h16l.14-24H320v-16Z"/><rect class="cls-1" x="336" y="304.06" width="16" height="16"/><path class="cls-2" d="M472,272.06H368v-32a8,8,0,0,0-8-8H248V187.38l29.65-29.66a8,8,0,0,0,2.35-5.66v-24H264v20.69l-16,16V112.06H232v68.69l-16-16V136.06H200v32a8,8,0,0,0,2.34,5.66L232,203.38v28.68H112a8,8,0,0,0-8,8v32H24a8,8,0,0,0-8,8v95.35L.11,470.75A8,8,0,0,0,6.69,480a8.17,8.17,0,0,0,1.31.1H216a8,8,0,0,0,8-8,8.17,8.17,0,0,0-.1-1.31L208,375.41V280.06a8,8,0,0,0-8-8H120v-24H352v24H248a8,8,0,0,0-8,8v152a8,8,0,0,0,8,8h78.24l-4.8,24H304v16H416v-16H398.56l-4.8-24H472a8,8,0,0,0,8-8v-152A8,8,0,0,0,472,272.06Zm-265.45,192H17.45l13.32-80H193.22ZM192,288.06v80H32v-80Zm145.76,176,4.8-24h34.88l4.8,24Zm126.24-40H256v-16H464Zm0-32H256v-104H464Z"/><rect class="cls-1" x="40" y="400.06" width="16" height="16"/><rect class="cls-1" x="40" y="432.06" width="16" height="16"/><rect class="cls-1" x="72" y="432.06" width="80" height="16"/><rect class="cls-1" x="168" y="432.06" width="16" height="16"/><rect class="cls-1" x="72" y="400.06" width="16" height="16"/><rect class="cls-1" x="104" y="400.06" width="16" height="16"/><rect class="cls-1" x="136" y="400.06" width="16" height="16"/><rect class="cls-1" x="168" y="400.06" width="16" height="16"/><path class="cls-1" d="M64.14,304.06A16.17,16.17,0,0,0,48,320.21v23.85H64l.14-24H96v-16Z"/><rect class="cls-1" x="112" y="304.06" width="16" height="16"/><path class="cls-2" d="M320,40.06A87,87,0,0,0,297.87,43,72,72,0,0,0,160,72.06v1.8a72,72,0,1,0-16,142.2h64v-16H144a56,56,0,1,1,22.2-107.4,8,8,0,0,0,11-9A57.54,57.54,0,0,1,176,72.06a56,56,0,0,1,109.41-16.8,8,8,0,0,0,10,5.22l.3-.1A72,72,0,1,1,320,200.06H272v16h48a88,88,0,0,0,0-176Z"/><rect class="cls-1" x="232" y="80.06" width="16" height="16"/><rect class="cls-1" x="200" y="104.06" width="16" height="16"/><rect class="cls-1" x="264" y="96.06" width="16" height="16"/></g></g></svg>