<?xml version="1.0" encoding="UTF-8"?>
<svg width="64px" height="18px" viewBox="0 0 64 18" version="1.1" xmlns="http://www.w3.org/2000/svg" xmlns:xlink="http://www.w3.org/1999/xlink">
    <!-- Generator: Sketch 52.2 (67145) - http://www.bohemiancoding.com/sketch -->
    <title>Paypal-light@0,25x</title>
    <desc>Created with Sketch.</desc>
    <g id="Page-1" stroke="none" stroke-width="1" fill="none" fill-rule="evenodd">
        <g id="credit-card" transform="translate(-441.000000, -526.000000)">
            <g id="paypal" transform="translate(0.000000, 507.000000)">
                <g id="Paypal-light" transform="translate(473.000000, 28.000000) scale(1, -1) translate(-473.000000, -28.000000) translate(441.000000, 19.000000)">
                    <path d="M43.5312621,12.7503762 C43.2626136,10.9864197 41.9155692,10.9864197 40.6122436,10.9864197 L39.8709257,10.9864197 L40.3911154,14.2798988 C40.4221621,14.4788508 40.5938691,14.6252136 40.7953555,14.6252136 L41.1356014,14.6252136 C42.0226485,14.6252136 42.8602744,14.6252136 43.292393,14.1202304 C43.5509039,13.8180007 43.6288373,13.3694084 43.5312621,12.7503762 M42.9641856,17.3528834 L38.0499447,17.3528834 C37.7135004,17.3528834 37.4277446,17.1083118 37.3751553,16.7763028 L35.3881699,4.17516526 C35.3488863,3.92679208 35.5415023,3.70186228 35.7924099,3.70186228 L38.314158,3.70186228 C38.5492255,3.70186228 38.7494447,3.87293565 38.7861938,4.1048351 L39.3501023,7.67773406 C39.4020579,8.00974311 39.6884474,8.25431467 40.0242581,8.25431467 L41.5791249,8.25431467 C44.8162132,8.25431467 46.6847146,9.82058639 47.1725905,12.9258848 C47.3924514,14.2830669 47.1814609,15.3500578 46.545955,16.0970782 C45.8470887,16.9182303 44.6083908,17.3528834 42.9641856,17.3528834" id="Shape" fill="#0079C1"></path>
                    <path d="M8.48042006,12.7503762 C8.21177152,10.9864197 6.86472715,10.9864197 5.56140153,10.9864197 L4.82008361,10.9864197 L5.34027336,14.2798988 C5.37132001,14.4788508 5.54302698,14.6252136 5.74451339,14.6252136 L6.08475931,14.6252136 C6.9718064,14.6252136 7.8094323,14.6252136 8.24155095,14.1202304 C8.50006182,13.8180007 8.57799524,13.3694084 8.48042006,12.7503762 M7.91334353,17.3528834 L2.99910265,17.3528834 C2.66265836,17.3528834 2.37690248,17.1083118 2.32431326,16.7763028 L0.337327775,4.17516526 C0.298044261,3.92679208 0.490026596,3.70186228 0.741567806,3.70186228 L3.08844096,3.70186228 C3.42425165,3.70186228 3.71000753,3.94643384 3.76259675,4.27780928 L4.29926024,7.67773406 C4.35121586,8.00974311 4.63760535,8.25431467 4.97341603,8.25431467 L6.52828286,8.25431467 C9.76537113,8.25431467 11.6338725,9.82058639 12.1217484,12.9258848 C12.3416093,14.2830669 12.1306188,15.3500578 11.495113,16.0970782 C10.7962466,16.9182303 9.55754867,17.3528834 7.91334353,17.3528834" id="Shape" fill="#00457C"></path>
                    <path d="M19.3222264,8.22656277 C19.0947622,6.88205282 18.0277713,5.9791656 16.666154,5.9791656 C15.9837613,5.9791656 15.4369601,6.19902656 15.0859429,6.61467148 C14.7380938,7.02651477 14.6069375,7.61386667 14.7171848,8.26711349 C14.9288089,9.60021855 16.0135408,10.531618 17.3542491,10.531618 C18.0227024,10.531618 18.5650684,10.3098562 18.9230552,9.89040967 C19.2835765,9.46779509 19.425504,8.87727517 19.3222264,8.22656277 M22.6017662,12.8068938 L20.248557,12.8068938 C20.0470706,12.8068938 19.8753636,12.660531 19.8436834,12.4609454 L19.7404057,11.8032634 L19.576302,12.0414989 C19.06625,12.780916 17.9301961,13.0286555 16.796043,13.0286555 C14.1963614,13.0286555 11.9755757,11.0581438 11.543457,8.29499211 C11.3185272,6.91626749 11.6378642,5.59900256 12.4197328,4.67964162 C13.1376074,3.83504606 14.1621468,3.48339525 15.3831037,3.48339525 C17.4790693,3.48339525 18.641101,4.82917241 18.641101,4.82917241 L18.5359225,4.17529198 C18.496639,3.9269188 18.6886213,3.701989 18.9407962,3.701989 L21.0595715,3.701989 C21.3960158,3.701989 21.6817717,3.94592695 21.7343609,4.277936 L23.0066399,12.3335908 C23.0459234,12.581964 22.8533074,12.8068938 22.6017662,12.8068938" id="Shape" fill="#00457C"></path>
                    <path d="M54.3731318,8.22656277 C54.1456676,6.88205282 53.0786767,5.9791656 51.7170594,5.9791656 C51.0346668,5.9791656 50.4878656,6.19902656 50.1368484,6.61467148 C49.7883656,7.02651477 49.657843,7.61386667 49.7680902,8.26711349 C49.9797143,9.60021855 51.0644462,10.531618 52.4051545,10.531618 C53.0736079,10.531618 53.6159738,10.3098562 53.9739607,9.89040967 C54.3344819,9.46779509 54.4764095,8.87727517 54.3731318,8.22656277 M57.6526717,12.8068938 L55.2994624,12.8068938 C55.097976,12.8068938 54.9262691,12.660531 54.8945888,12.4609454 L54.7913112,11.8032634 L54.6265739,12.0414989 C54.1171554,12.780916 52.9811015,13.0286555 51.8469485,13.0286555 C49.2472669,13.0286555 47.0264811,11.0581438 46.5943625,8.29499211 C46.3694327,6.91626749 46.6887696,5.59900256 47.4706383,4.67964162 C48.1885128,3.83504606 49.2130522,3.48339525 50.4340092,3.48339525 C52.5299747,3.48339525 53.6920064,4.82917241 53.6920064,4.82917241 L53.586828,4.17529198 C53.5475444,3.9269188 53.7395268,3.701989 53.9917016,3.701989 L56.1104769,3.701989 C56.4469212,3.701989 56.7326771,3.94592695 56.7852663,4.277936 L58.0575453,12.3335908 C58.0968288,12.581964 57.9042129,12.8068938 57.6526717,12.8068938" id="Shape" fill="#0079C1"></path>
                    <path d="M35.1349179,12.8068304 L32.7696702,12.8068304 C32.5434732,12.8068304 32.3318491,12.6946823 32.2051281,12.5071352 L28.942062,7.70187441 L27.5595358,12.3195881 C27.4727319,12.608512 27.2066177,12.8068304 26.9050217,12.8068304 L24.5803248,12.8068304 C24.2996377,12.8068304 24.1019529,12.5305786 24.1925585,12.2650981 L26.7966753,4.62001938 L24.3471581,1.16370375 C24.1551758,0.892520785 24.3490589,0.517426587 24.6817016,0.517426587 L27.0444148,0.517426587 C27.2680774,0.517426587 27.4778007,0.627040263 27.6057889,0.810785732 L35.4713622,12.1637213 C35.6595429,12.4355378 35.4656598,12.8068304 35.1349179,12.8068304" id="Shape" fill="#00457C"></path>
                    <path d="M60.4262145,17.0066182 L58.4094495,4.17484846 C58.370166,3.92647528 58.5621484,3.70154548 58.8136896,3.70154548 L60.842493,3.70154548 C61.1783037,3.70154548 61.4646932,3.94611703 61.5166488,4.27812609 L63.5055351,16.8792636 C63.5448186,17.1276368 63.3528363,17.3525666 63.1006614,17.3525666 L60.8310881,17.3525666 C60.6289681,17.3525666 60.4572611,17.2062038 60.4262145,17.0066182" id="Shape" fill="#0079C1"></path>
                </g>
            </g>
        </g>
    </g>
</svg>