<svg xmlns="http://www.w3.org/2000/svg" xmlns:xlink="http://www.w3.org/1999/xlink" viewBox="0 0 448 472.85"><defs><style>.cls-1{fill:none;}.cls-2{fill:#dee2e6;}.cls-3{clip-path:url(#clip-path);}.cls-4{fill:#5998ff;}</style><clipPath id="clip-path"><path class="cls-1" d="M224,0C100.29,0,0,100.29,0,224v88a8,8,0,0,0,8,8H32.41A28,28,0,0,0,60,344h4.8a40,40,0,0,0,79.2-8V224a40,40,0,0,0-79.2-8H60a28,28,0,0,0-27.59,24H16V224A207.32,207.32,0,0,1,79.91,74.21a44.72,44.72,0,0,0,51.47,1A163.6,163.6,0,0,1,224,48a163.51,163.51,0,0,1,92.62,27.2,45.07,45.07,0,0,0,51.53-.9A207.42,207.42,0,0,1,432,224v16H415.59A28,28,0,0,0,388,216h-4.8a40,40,0,0,0-79.2,8V336a40,40,0,0,0,79.2,8H388a28,28,0,0,0,27.59-24h16A128.05,128.05,0,0,1,304,440H262.53A24,24,0,0,0,240,424H208a24,24,0,0,0,0,48h32a24,24,0,0,0,22.53-16H304A144.17,144.17,0,0,0,448,312V224C448,100.29,347.71,0,224,0ZM80,224a24,24,0,0,1,48,0V336a24,24,0,0,1-48,0ZM48,244a12,12,0,0,1,12-12h4v96H60a12,12,0,0,1-12-12ZM32,256v48H16V256ZM325.58,61.92A179.57,179.57,0,0,0,224,32,179.56,179.56,0,0,0,122.4,61.9a29,29,0,0,1-30.16,1.28,207.52,207.52,0,0,1,263.49,0v0A29,29,0,0,1,325.58,61.92ZM368,336a24,24,0,0,1-48,0V224a24,24,0,0,1,48,0Zm32-20a12,12,0,0,1-12,12h-4V232h4a12,12,0,0,1,12,12ZM240,456H208a8,8,0,0,1,0-16h32a8,8,0,0,1,0,16ZM432,304H416V256h16Z"/></clipPath></defs><title>support_1</title><g id="Layer_2" data-name="Layer 2"><g id="Capa_1" data-name="Capa 1"><path class="cls-2" d="M224,0C100.29,0,0,100.29,0,224v88a8,8,0,0,0,8,8H32.41A28,28,0,0,0,60,344h4.8a40,40,0,0,0,79.2-8V224a40,40,0,0,0-79.2-8H60a28,28,0,0,0-27.59,24H16V224A207.32,207.32,0,0,1,79.91,74.21a44.72,44.72,0,0,0,51.47,1A163.6,163.6,0,0,1,224,48a163.51,163.51,0,0,1,92.62,27.2,45.07,45.07,0,0,0,51.53-.9A207.42,207.42,0,0,1,432,224v16H415.59A28,28,0,0,0,388,216h-4.8a40,40,0,0,0-79.2,8V336a40,40,0,0,0,79.2,8H388a28,28,0,0,0,27.59-24h16A128.05,128.05,0,0,1,304,440H262.53A24,24,0,0,0,240,424H208a24,24,0,0,0,0,48h32a24,24,0,0,0,22.53-16H304A144.17,144.17,0,0,0,448,312V224C448,100.29,347.71,0,224,0ZM80,224a24,24,0,0,1,48,0V336a24,24,0,0,1-48,0ZM48,244a12,12,0,0,1,12-12h4v96H60a12,12,0,0,1-12-12ZM32,256v48H16V256ZM325.58,61.92A179.57,179.57,0,0,0,224,32,179.56,179.56,0,0,0,122.4,61.9a29,29,0,0,1-30.16,1.28,207.52,207.52,0,0,1,263.49,0v0A29,29,0,0,1,325.58,61.92ZM368,336a24,24,0,0,1-48,0V224a24,24,0,0,1,48,0Zm32-20a12,12,0,0,1-12,12h-4V232h4a12,12,0,0,1,12,12ZM240,456H208a8,8,0,0,1,0-16h32a8,8,0,0,1,0,16ZM432,304H416V256h16Z"/><g class="cls-3"><rect class="cls-4" x="180.2" y="422.31" width="82.27" height="50.55"/></g></g></g></svg>